<svg xmlns="http://www.w3.org/2000/svg" viewBox="0 0 500.61 301.62"><defs><style>.cls-1{fill:#f58220;fill-rule:evenodd;}.cls-2,.cls-6{font-size:66px;font-family:FrutigerLTCom-Black, Frutiger LT Com;font-weight:800;}.cls-2{fill:#005b7f;}.cls-3{letter-spacing:-0.02em;}.cls-4{letter-spacing:-0.07em;}.cls-5{letter-spacing:0em;}.cls-6{fill:#fff;}.cls-7,.cls-8,.cls-9{fill:#145b7b;}.cls-8{opacity:0.75;}.cls-9{opacity:0.5;}.cls-10{fill:none;stroke:#000;stroke-miterlimit:10;stroke-width:0.25px;}</style></defs><g id="Ebene_1" data-name="Ebene 1"><path class="cls-1" d="M378.93,282.3c23.53-141,95.6-214.23,161-163.48,48.82,37.89,81.86,136.56,83.18,248.45l-5.19.29c-1.66-147-57-263.15-123.58-259.5-50.08,2.75-94.18,73.52-110.79,177.8Z" transform="translate(-201.62 -102.72)"/><path class="cls-1" d="M615.46,378.14a5.3,5.3,0,1,1,5.3,5.3A5.3,5.3,0,0,1,615.46,378.14Z" transform="translate(-201.62 -102.72)"/><text class="cls-2" transform="translate(152.59 279.84)">PO<tspan class="cls-3" x="91.67" y="0">R</tspan><tspan class="cls-4" x="134.51" y="0">T</tspan><tspan class="cls-5" x="166.38" y="0">AL IO</tspan></text><text class="cls-6" transform="translate(0 285.12)">AAS</text><text class="cls-6" transform="translate(199.28 158.4)">AAS</text></g><g id="Ebene_2" data-name="Ebene 2"><path class="cls-7" d="M400.53,293.92h125.1a6.54,6.54,0,0,1,5.11,1.9c1.2,1.2,7.81,8.13,8.84,9.16a6.76,6.76,0,0,1,1.9,4.3v18.33c0,3.05,3.77,6.77,6.41,6.77h13.32c3,0,6.94-3.14,6.94-6.44V226.43a6.3,6.3,0,0,0-1.13-3.52L549.16,202.1a7.78,7.78,0,0,0-6.77-3H384.1c-1.57,0-4.54-.17-6.85,2.56S359.86,221.79,359,223a4.3,4.3,0,0,0-.94,2.93V327.19c0,3.89,3.72,7.19,6.36,7.19h14.56c4.18,0,7.65-3.39,7.65-6.77V310c0-1.24,0-2.86.91-4,1.13-1.32,7.26-8.26,8.34-9.44S398.3,293.92,400.53,293.92Z" transform="translate(-201.62 -102.72)"/><path class="cls-8" d="M407.53,285.83H532.62a6.56,6.56,0,0,1,5.12,1.9c1.2,1.19,7.8,8.13,8.84,9.16a6.74,6.74,0,0,1,1.9,4.3v18.33c0,3.05,3.77,6.77,6.41,6.77h13.32c3,0,6.93-3.14,6.93-6.44V218.34a6.27,6.27,0,0,0-1.12-3.52L556.15,194a7.77,7.77,0,0,0-6.77-3H391.1c-1.57,0-4.54-.17-6.85,2.56S366.86,213.7,366,214.86a4.29,4.29,0,0,0-.94,2.93V319.1c0,3.88,3.71,7.19,6.36,7.19h14.56c4.18,0,7.65-3.39,7.65-6.77V301.93c0-1.24,0-2.87.9-4,1.13-1.33,7.26-8.26,8.34-9.45S405.3,285.83,407.53,285.83Z" transform="translate(-201.62 -102.72)"/><path class="cls-9" d="M414.35,277.9H539.44a6.56,6.56,0,0,1,5.12,1.9c1.2,1.19,7.8,8.13,8.84,9.16a6.74,6.74,0,0,1,1.9,4.29v18.33c0,3.06,3.77,6.77,6.41,6.77H575c3,0,6.93-3.13,6.93-6.44V210.41a6.24,6.24,0,0,0-1.12-3.52L563,186.08A7.78,7.78,0,0,0,556.2,183H397.92c-1.57,0-4.54-.16-6.85,2.56s-17.39,20.19-18.3,21.35a4.29,4.29,0,0,0-.94,2.93V311.17c0,3.88,3.71,7.18,6.36,7.18h14.56c4.18,0,7.65-3.38,7.65-6.77V294c0-1.24,0-2.87.9-4,1.13-1.32,7.26-8.26,8.34-9.44S412.12,277.9,414.35,277.9Z" transform="translate(-201.62 -102.72)"/><path class="cls-9" d="M420,271.36H545.07a6.56,6.56,0,0,1,5.12,1.9c1.2,1.19,7.8,8.13,8.83,9.16a6.69,6.69,0,0,1,1.9,4.29V305c0,3.06,3.77,6.78,6.42,6.78h13.32c3,0,6.93-3.14,6.93-6.44V203.87a6.17,6.17,0,0,0-1.13-3.52L568.6,179.54a7.78,7.78,0,0,0-6.77-3H403.55c-1.57,0-4.54-.17-6.86,2.56s-17.39,20.18-18.29,21.34a4.29,4.29,0,0,0-.94,2.93V304.63c0,3.88,3.71,7.19,6.35,7.19h14.57c4.18,0,7.64-3.39,7.64-6.78V287.46c0-1.24,0-2.87.91-4,1.13-1.32,7.26-8.25,8.34-9.44S417.75,271.36,420,271.36Z" transform="translate(-201.62 -102.72)"/><path class="cls-10" d="M458.33,312.3" transform="translate(-201.62 -102.72)"/><text class="cls-6" transform="translate(199.81 158.4)">AAS</text></g></svg>