<?xml version="1.0" encoding="utf-8"?>
<!DOCTYPE svg PUBLIC "-//W3C//DTD SVG 1.1//EN" "http://www.w3.org/Graphics/SVG/1.1/DTD/svg11.dtd">
<svg xmlns="http://www.w3.org/2000/svg" xmlns:xlink="http://www.w3.org/1999/xlink" version="1.1" baseProfile="full" width="44" height="44" viewBox="0 0 44.00 44.00" enable-background="new 0 0 44.00 44.00" xml:space="preserve">
	<path fill="#179C7D" fill-opacity="1" stroke-linejoin="round" d="M 0,43.5049C 10.2263,38.2406 25.2064,29.7283 42.988,17.2846L 42.988,13.1077C 27.3378,23.3465 11.4246,31.5677 0,37.0061L 0,43.5049 Z "/>
	<path fill="#179C7D" fill-opacity="1" stroke-linejoin="round" d="M 0,31.0323C 11.3863,26.3934 27.3005,19.2265 42.988,9.8961L 42.988,7.83406C 28.244,15.148 12.9253,19.7257 0,22.5801L 0,31.0323 Z "/>
	<path fill="#179C7D" fill-opacity="1" stroke-linejoin="round" d="M 42.988,43.5257L 42.988,22.5169C 33.2008,30.7671 23.5079,37.9112 15.3664,43.5257L 42.988,43.5257 Z "/>
	<path fill="#179C7D" fill-opacity="1" stroke-linejoin="round" d="M 9.87003,43.5257C 17.6014,38.9355 26.9857,32.9462 36.3316,25.946C 38.5117,24.3117 40.7385,22.6288 42.989,20.8888L 42.989,18.2851C 29.1554,28.6554 15.037,37.3002 4.00704,43.5257L 9.87003,43.5257 Z "/>
	<path fill="#179C7D" fill-opacity="1" stroke-linejoin="round" d="M 0,19.5238C 12.5732,17.3126 27.9561,13.3346 42.988,6.19044L 42.988,3.84877C 27.8401,10.649 12.6788,13.5324 0,14.5587L 0,19.5238 Z "/>
	<path fill="#179C7D" fill-opacity="1" stroke-linejoin="round" d="M 0,0.32021L 0,12.3548C 0.939362,12.2968 1.89633,12.2295 2.87401,12.1539C 13.3271,11.3502 27.5926,9.50254 42.988,2.84623L 42.988,0.32021L 0,0.32021 Z "/>
	<path fill="#FFFFFF" fill-opacity="1" stroke-linejoin="round" d="M 0,12.3548L 0,14.5587C 12.6788,13.5324 27.8401,10.649 42.988,3.84877L 42.988,2.84623C 27.5936,9.50254 13.3271,11.3502 2.87401,12.1539C 1.89633,12.2305 0.939362,12.2968 0,12.3548 Z "/>
	<path fill="#FFFFFF" fill-opacity="1" stroke-linejoin="round" d="M 0,22.5801C 12.9253,19.7257 28.244,15.148 42.988,7.83406L 42.988,6.19148C 27.9561,13.3346 12.5732,17.3126 0,19.5238L 0,22.5801 Z "/>
	<path fill="#FFFFFF" fill-opacity="1" stroke-linejoin="round" d="M 0,37.0061C 11.4246,31.5677 27.3378,23.3465 42.988,13.1077L 42.988,9.8961C 27.3005,19.2265 11.3863,26.3934 0,31.0323L 0,37.0061 Z "/>
	<path fill="#FFFFFF" fill-opacity="1" stroke-linejoin="round" d="M 9.87003,43.5257L 15.3674,43.5257C 23.5089,37.9123 33.2018,30.7671 42.989,22.5169L 42.989,20.8888C 40.7385,22.6288 38.5128,24.3117 36.3316,25.946C 26.9857,32.9462 17.6014,38.9355 9.87003,43.5257 Z "/>
	<path fill="#FFFFFF" fill-opacity="1" stroke-linejoin="round" d="M 0,43.5257L 4.00704,43.5257C 15.037,37.3002 29.1554,28.6564 42.988,18.2851L 42.988,17.2846C 25.2064,29.7294 10.2263,38.2406 0,43.5049L 0,43.5257 Z "/>
</svg>
